<?xml version="1.0" standalone="no"?><!DOCTYPE svg PUBLIC "-//W3C//DTD SVG 1.1//EN" "http://www.w3.org/Graphics/SVG/1.1/DTD/svg11.dtd"><svg t="1628582234037" class="icon" viewBox="0 0 1024 1024" version="1.1" xmlns="http://www.w3.org/2000/svg" p-id="11218" xmlns:xlink="http://www.w3.org/1999/xlink" width="200" height="200"><defs><style type="text/css"></style></defs><path d="M869.009434 98.853892h-28.88261v-19.405503a11.28227 11.28227 0 0 0-11.28227-11.28227h-47.836823V32.965438a29.333901 29.333901 0 0 0-58.667802 0v35.200681h-71.755234V32.965438a29.333901 29.333901 0 1 0-58.667802 0v35.200681h-72.206526V32.965438a29.333901 29.333901 0 1 0-58.216511 0v35.200681H390.189912V32.965438a29.333901 29.333901 0 0 0-58.667802 0v35.200681H260.669457V32.965438a29.333901 29.333901 0 0 0-58.667802 0v35.200681H152.359669a11.28227 11.28227 0 0 0-11.28227 11.28227v902.581568a11.28227 11.28227 0 0 0 11.28227 11.28227h28.431319v19.405503a11.28227 11.28227 0 0 0 11.28227 11.28227h676.936176a11.28227 11.28227 0 0 0 11.28227-11.28227v-902.581568a11.28227 11.28227 0 0 0-11.28227-11.28227z m-135.387235-65.888454a18.051631 18.051631 0 1 1 36.103263 0v35.200681h-36.103263z m0 57.76522h36.103263v34.749391a18.051631 18.051631 0 1 1-36.103263 0zM603.199162 32.965438a18.051631 18.051631 0 0 1 36.103263 0v35.200681h-36.103263z m0 57.76522h37.457135v34.749391a18.051631 18.051631 0 1 1-36.103262 0zM472.776126 32.965438a18.051631 18.051631 0 0 1 18.051631-18.051631 17.600341 17.600341 0 0 1 17.600341 18.051631v35.200681h-35.651972z m0 57.76522h35.651972v34.749391a17.600341 17.600341 0 0 1-17.600341 18.051631 18.051631 18.051631 0 0 1-18.051631-18.051631zM342.80438 32.965438a18.051631 18.051631 0 1 1 36.103263 0v35.200681h-36.103263z m0 56.411348h36.103263v36.103263a18.051631 18.051631 0 0 1-36.103263 0zM213.283925 32.965438a18.051631 18.051631 0 0 1 36.103263 0v35.200681h-36.103263z m0 56.411348h36.103263v36.103263a18.051631 18.051631 0 1 1-36.103263 0zM163.641939 969.393815V89.376786h38.359716v36.103263a29.333901 29.333901 0 1 0 58.667802 0v-36.103263h70.852653v36.103263a29.333901 29.333901 0 1 0 58.667802 0v-36.103263h69.950072v36.103263a29.333901 29.333901 0 1 0 58.216511 0v-36.103263h72.206525v36.103263a29.333901 29.333901 0 1 0 58.667802 0v-36.103263h71.755235v36.103263a29.333901 29.333901 0 0 0 58.667802 0v-36.103263h36.554554v880.017029z m694.085226 30.687773H203.355528v-8.123234h625.489026a11.28227 11.28227 0 0 0 11.28227-11.282269V121.418432h17.600341z" fill="" p-id="11219"></path><path d="M817.562285 89.376786h-36.554554v36.103263a29.333901 29.333901 0 0 1-58.667802 0v-36.103263h-71.755234v36.103263a29.333901 29.333901 0 1 1-58.667802 0v-36.103263h-72.206526v36.103263a29.785192 29.785192 0 1 1-59.570383 0v-36.103263H390.189912v36.103263a29.333901 29.333901 0 1 1-58.667802 0v-36.103263H260.669457v36.103263a29.333901 29.333901 0 1 1-58.667802 0v-36.103263H163.641939v880.017029h653.920346z" fill="#FFFFFF" p-id="11220"></path><path d="M231.335556 143.53168a18.051631 18.051631 0 0 0 18.051632-18.051631v-36.103263h-36.103263v36.103263a18.051631 18.051631 0 0 0 18.051631 18.051631zM360.856011 143.53168a18.051631 18.051631 0 0 0 18.051632-18.051631v-36.103263h-36.103263v36.103263a18.051631 18.051631 0 0 0 18.051631 18.051631zM490.827757 143.53168a17.600341 17.600341 0 0 0 17.600341-18.051631v-36.103263h-35.651972v36.103263a18.051631 18.051631 0 0 0 18.051631 18.051631zM621.250794 143.53168a18.051631 18.051631 0 0 0 18.051631-18.051631v-36.103263h-36.103263v36.103263a18.051631 18.051631 0 0 0 18.051632 18.051631zM751.67383 143.53168a18.051631 18.051631 0 0 0 18.051632-18.051631v-36.103263h-36.103263v36.103263a18.051631 18.051631 0 0 0 18.051631 18.051631z" fill="#FFFFFF" p-id="11221"></path><path d="M681.272468 382.715796c-5.86678 14.441305-109.21237 288.374811-125.910129 285.215775-25.272284-5.415489-35.200681-125.910129-37.005844-143.059178a1594.410341 1594.410341 0 0 1-2.256454-167.428881 28.431319 28.431319 0 0 0-55.960057-7.671944 680.095212 680.095212 0 0 1-207.593761 300.108372c-27.980029 23.467121 12.184851 63.18071 39.713589 39.713589A722.065255 722.065255 0 0 0 456.980948 491.476875c2.256454 105.150753 18.502922 228.353137 90.258157 239.635406 48.288114 7.220653 68.144908-60.472965 83.488795-90.258157 37.457135-78.975887 71.755235-159.756938 103.34559-240.989279 14.441305-35.651972-39.713589-50.544568-52.801022-17.149049z" fill="#231815" p-id="11222"></path></svg>